<svg xmlns="http://www.w3.org/2000/svg" xmlns:xlink="http://www.w3.org/1999/xlink" viewBox="0 0 4800 2700"><defs><style>.cls-1,.cls-17{fill:none;}.cls-2{isolation:isolate;}.cls-3{clip-path:url(#clip-path);}.cls-34,.cls-4{fill:#0f1542;}.cls-5{fill:#f49146;}.cls-6{fill:#bbd8f9;}.cls-7{fill:#1b42a7;}.cls-8{fill:#089486;}.cls-9{fill:#1651da;}.cls-10{fill:#ea4546;}.cls-11{fill:#0e2151;}.cls-12{fill:#ba5007;}.cls-13{fill:#d37809;}.cls-14{fill:#111827;}.cls-15{fill:#f9d9a6;}.cls-16{fill:#ffb677;}.cls-17{stroke:#0f1542;stroke-miterlimit:10;stroke-width:20.64px;}.cls-18{fill:#026a9e;}.cls-19{fill:#fdfafa;}.cls-20{fill:#fff;}.cls-21{fill:#0d7fc6;}.cls-22{fill:#3a3a3a;}.cls-23{fill:#b7bbbc;}.cls-24{fill:#bcbdbe;}.cls-25{fill:#c4b5fc;}.cls-26{fill:#dcd5f9;}.cls-27{fill:#f86f6b;}.cls-28{fill:#faa4a0;}.cls-29{fill:#2664e4;opacity:0.44;mix-blend-mode:multiply;}.cls-30{fill:#edf4ff;}.cls-31{fill:#39baf9;}.cls-32{fill:#1f398e;}.cls-33{fill:#f6c01c;}.cls-34{font-size:60.53px;font-family:OpenSans-ExtraBold, Open Sans;font-weight:800;}.cls-35{fill:#efc5b3;}.cls-36{fill:#703e03;}.cls-37{fill:#c18f7e;}.cls-38{clip-path:url(#clip-path-2);}.cls-39{fill:#d97706;}.cls-40{fill:#7c3aed;}.cls-41{clip-path:url(#clip-path-3);}.cls-42{clip-path:url(#clip-path-4);}</style><clipPath id="clip-path"><rect class="cls-1" width="4800" height="2700"/></clipPath><clipPath id="clip-path-2"><polygon class="cls-1" points="3083.99 1064.01 3049.35 924.94 3304.91 777.39 3339.55 916.46 3083.99 1064.01"/></clipPath><clipPath id="clip-path-3"><polygon class="cls-1" points="2760.96 1733 2676.31 1394.18 3367.23 984.47 3451.88 1323.29 2760.96 1733"/></clipPath><clipPath id="clip-path-4"><polygon class="cls-1" points="2654.02 1255.32 2621.76 1125.79 2856.06 990.51 2888.33 1120.04 2654.02 1255.32"/></clipPath></defs><g class="cls-2"><g id="Layer_4" data-name="Layer 4"><g class="cls-3"><rect class="cls-4" x="1148.28" width="3651.72" height="2700"/><rect class="cls-5" width="3651.72" height="2700"/><polygon class="cls-6" points="4773.73 1028.91 3861.47 502.22 3861.47 -208.78 4773.73 317.91 4773.73 1028.91"/><polygon class="cls-7" points="4102.13 268.44 3948.89 179.96 3948.89 4.29 4102.13 92.76 4102.13 268.44"/><polygon class="cls-8" points="4261.45 574.82 4108.21 486.34 4108.21 310.67 4261.45 399.15 4261.45 574.82"/><polygon class="cls-9" points="4596.43 501.29 4443.19 412.81 4443.19 237.14 4596.43 325.62 4596.43 501.29"/><polygon class="cls-10" points="4482.05 770.9 4328.8 682.43 4328.8 506.76 4482.05 595.23 4482.05 770.9"/><polygon class="cls-11" points="1179.14 1986.65 1179.14 3102.15 -562.06 4172.45 -562.06 2979.6 1179.14 1986.65"/><g class="cls-2"><polygon class="cls-4" points="3817.17 -828.66 3815.33 2658.53 3657.45 2750.28 3659.29 -736.91 3817.17 -828.66"/><polygon class="cls-12" points="3659.29 -736.91 3657.45 2750.28 3498.53 2658.53 3500.38 -828.66 3659.29 -736.91"/></g><g class="cls-2"><polygon class="cls-13" points="1709.77 1162.76 1709.26 1343.51 1551.96 1252.7 1552.47 1071.95 1709.77 1162.76"/><polygon class="cls-4" points="1709.77 1162.76 3660.49 31.09 3659.98 211.84 1709.26 1343.51 1709.77 1162.76"/><polygon class="cls-12" points="1552.47 1071.95 3503.2 -59.72 3660.49 31.09 1709.77 1162.76 1552.47 1071.95"/></g><g class="cls-2"><polygon class="cls-4" points="1776.66 -393.6 1774.82 3093.59 1616.93 3185.34 1618.78 -301.85 1776.66 -393.6"/><polygon class="cls-12" points="1618.78 -301.85 1616.93 3185.34 1458.02 3093.6 1459.87 -393.59 1618.78 -301.85"/></g><polygon class="cls-4" points="3508.3 -467.67 1754.64 544.81 1754.64 -383.02 3508.3 -1395.49 3508.3 -467.67"/><polygon class="cls-11" points="1347.72 2120.7 2722.36 2914.23 5193.85 1488.53 3817.17 696.02 1347.72 2120.7"/><polygon class="cls-14" points="2306.7 1618.23 3143.13 1131.09 4216.49 1768.36 3290.19 2306.57 2473.17 1834.74 2306.7 1618.23"/><polygon class="cls-15" points="917.37 1837.48 -1085.91 2994.08 -1085.91 95.78 917.37 -1060.81 917.37 1837.48"/><polygon class="cls-12" points="1024.24 1895.85 916.49 1833.64 916.49 -1064.66 1024.24 -1002.45 1024.24 1895.85"/><polygon class="cls-16" points="1179.14 1986.65 -828.27 3143 -1085.91 2994.25 921.5 1837.9 1179.14 1986.65"/><line class="cls-17" x1="515.75" y1="-828.94" x2="515.75" y2="2071.63"/><polygon class="cls-16" points="969.93 -867.66 -1032.44 283.47 -1060.52 222.08 -1085.91 166.62 916.52 -984.58 943.16 -926.36 969.93 -867.66"/><polygon class="cls-4" points="969.93 -867.66 -1032.44 283.47 -1060.52 222.08 943.16 -926.36 969.93 -867.66"/><polygon class="cls-16" points="969.93 -628.85 -1032.44 522.29 -1060.52 460.9 -1085.91 405.44 916.52 -745.76 943.16 -687.54 969.93 -628.85"/><polygon class="cls-4" points="969.93 -628.85 -1032.44 522.29 -1060.52 460.9 943.16 -687.54 969.93 -628.85"/><polygon class="cls-16" points="969.93 -390.03 -1032.44 761.11 -1060.52 699.72 -1085.91 644.26 916.52 -506.94 943.16 -448.73 969.93 -390.03"/><polygon class="cls-4" points="969.93 -390.03 -1032.44 761.11 -1060.52 699.72 943.16 -448.73 969.93 -390.03"/><polygon class="cls-16" points="969.93 -151.21 -1032.44 999.92 -1060.52 938.54 -1085.91 883.08 916.52 -268.12 943.16 -209.91 969.93 -151.21"/><polygon class="cls-4" points="969.93 -151.21 -1032.44 999.92 -1060.52 938.54 943.16 -209.91 969.93 -151.21"/><polygon class="cls-16" points="969.93 87.61 -1032.44 1238.74 -1060.52 1177.36 -1085.91 1121.9 916.52 -29.3 943.16 28.91 969.93 87.61"/><polygon class="cls-4" points="969.93 87.61 -1032.44 1238.74 -1060.52 1177.36 943.16 28.91 969.93 87.61"/><polygon class="cls-16" points="969.93 326.43 -1032.44 1477.56 -1060.52 1416.18 -1085.91 1360.72 916.52 209.52 943.16 267.73 969.93 326.43"/><polygon class="cls-4" points="969.93 326.43 -1032.44 1477.56 -1060.52 1416.18 943.16 267.73 969.93 326.43"/><polygon class="cls-16" points="969.93 565.25 -1032.44 1716.38 -1060.52 1655 -1085.91 1599.54 916.52 448.34 943.16 506.55 969.93 565.25"/><polygon class="cls-4" points="969.93 565.25 -1032.44 1716.38 -1060.52 1655 943.16 506.55 969.93 565.25"/><polygon class="cls-16" points="969.93 804.07 -1032.44 1955.2 -1060.52 1893.82 -1085.91 1838.36 916.52 687.16 943.16 745.37 969.93 804.07"/><polygon class="cls-4" points="969.93 804.07 -1032.44 1955.2 -1060.52 1893.82 943.16 745.37 969.93 804.07"/><polygon class="cls-16" points="969.93 1042.89 -1032.44 2194.02 -1060.52 2132.64 -1085.91 2077.18 916.52 925.98 943.16 984.19 969.93 1042.89"/><polygon class="cls-4" points="969.93 1042.89 -1032.44 2194.02 -1060.52 2132.64 943.16 984.19 969.93 1042.89"/><polygon class="cls-16" points="969.93 1281.71 -1032.44 2432.84 -1060.52 2371.46 -1085.91 2316 916.52 1164.8 943.16 1223.01 969.93 1281.71"/><polygon class="cls-4" points="969.93 1281.71 -1032.44 2432.84 -1060.52 2371.46 943.16 1223.01 969.93 1281.71"/><polygon class="cls-16" points="969.93 1520.53 -1032.44 2671.66 -1060.52 2610.28 -1085.91 2554.82 916.52 1403.62 943.16 1461.83 969.93 1520.53"/><polygon class="cls-4" points="969.93 1520.53 -1032.44 2671.66 -1060.52 2610.28 943.16 1461.83 969.93 1520.53"/><polygon class="cls-16" points="969.93 1759.35 -1032.44 2910.48 -1060.52 2849.1 -1085.91 2793.64 916.52 1642.43 943.16 1700.65 969.93 1759.35"/><polygon class="cls-4" points="969.93 1759.35 -1032.44 2910.48 -1060.52 2849.1 943.16 1700.65 969.93 1759.35"/><polygon class="cls-14" points="3329 946.23 3044.06 1106.57 3449.51 1339.43 3363.72 1386.4 3405.6 1411.94 3488.32 1363.94 3896.83 1596.79 4497.34 1247.51 3815.13 851.25 3329 946.23"/><g class="cls-2"><polygon class="cls-18" points="4157.21 271.69 4156.91 1008.81 3725.84 759.93 3726.14 22.81 4157.21 271.69"/><polygon class="cls-19" points="4145.85 870.15 4146.1 301.02 3729.41 60.44 3729.11 764.23 4040.94 944.27 4145.85 870.15"/><polygon class="cls-20" points="4139.07 875.34 4139.32 304.93 3722.63 64.36 3722.33 768.15 4034.55 948.41 4139.07 875.34"/><polygon class="cls-20" points="4132.29 880.29 4132.54 308.85 3715.85 68.27 3715.55 772.06 4028.17 952.55 4132.29 880.29"/><polygon class="cls-20" points="4125.51 885.25 4125.76 312.76 3709.07 72.19 3708.77 775.98 4021.78 956.69 4125.51 885.25"/><polygon class="cls-20" points="4118.73 890.2 4118.98 316.68 3702.28 76.1 3701.99 779.89 4015.39 960.84 4118.73 890.2"/><polygon class="cls-20" points="4111.95 895.16 4112.19 320.59 3695.51 80.02 3695.21 783.8 4009.01 964.98 4111.95 895.16"/><polygon class="cls-20" points="4003.52 968.54 4105.17 900.11 4105.41 324.51 3688.72 83.93 3688.43 787.72 4002.6 969.11 4003.52 968.54"/><polygon class="cls-20" points="4003.52 968.54 4098.39 905.07 4098.63 328.42 3681.94 87.84 3681.64 791.63 3996.04 973.15 4003.52 968.54"/><polygon class="cls-20" points="4003.52 968.54 4091.61 909.82 4091.85 332.34 3675.16 91.76 3674.86 795.55 3989.49 977.2 4003.52 968.54"/><polygon class="cls-20" points="4003.52 968.54 4084.82 914.48 4085.07 336.25 3668.38 95.68 3668.08 799.47 3982.93 981.24 4003.52 968.54"/><polygon class="cls-20" points="4003.52 968.54 4078.04 919.13 4078.29 340.17 3661.6 99.59 3661.3 803.38 3976.38 985.29 4003.52 968.54"/><polygon class="cls-20" points="4003.52 968.54 4071.26 923.79 4071.51 344.08 3654.82 103.5 3654.52 807.29 3969.82 989.33 4003.52 968.54"/><polygon class="cls-19" points="4003.52 968.54 4064.48 928.45 4064.73 348 3648.04 107.42 3647.74 811.21 3963.26 993.38 4003.52 968.54"/><polygon class="cls-19" points="4003.52 968.54 4057.7 933.11 4057.95 351.91 3641.26 111.33 3640.96 815.13 3956.66 997.39 4003.52 968.54"/><polygon class="cls-18" points="3608.26 91.32 3607.96 828.44 4044.97 1080.75 4045.27 343.63 3608.26 91.32"/><path class="cls-21" d="M4045.27,343.63l-.3,737.12,123.85-72,.29-737.12Zm68.65,551.14c-15.34,8.86-27.76,1.78-27.81-15.85s12.29-39.09,27.63-47.94,27.83-1.74,27.88,15.89S4129.26,885.91,4113.92,894.77Z"/><polygon class="cls-20" points="4149.24 753.53 4067.41 800.77 4067.41 390.87 4149.24 343.63 4149.24 753.53"/><path class="cls-22" d="M4113.92,894.77c-15.34,8.86-27.76,1.78-27.81-15.85s12.29-39.09,27.63-47.94,27.83-1.74,27.88,15.89S4129.26,885.91,4113.92,894.77Z"/><g class="cls-2"><path class="cls-23" d="M4134.56,833.92l-4.5-2.62c4.35,2.53,7,7.9,7.07,15.53,0,15.27-10.77,34-24.14,41.72-6.69,3.86-12.77,4.2-17.16,1.65l4.5,2.62c4.39,2.55,10.47,2.2,17.16-1.66,13.37-7.72,24.18-26.44,24.13-41.71C4141.6,841.82,4138.91,836.44,4134.56,833.92Z"/><path class="cls-20" d="M4134,824.45c-5.43-3.15-12.94-2.71-21.23,2.07-16.47,9.51-29.71,32.55-29.66,51.48,0,9.4,3.33,16,8.67,19.11l4.5,2.61c-5.34-3.1-8.64-9.71-8.67-19.11-.05-18.92,13.19-42,29.66-51.47,8.29-4.79,15.8-5.23,21.23-2.07Z"/><path class="cls-20" d="M4117.31,829.14c-16.47,9.51-29.71,32.55-29.66,51.47s13.39,26.52,29.86,17,29.79-32.5,29.74-51.43S4133.78,819.63,4117.31,829.14Zm.18,62c-13.29,7.67-24.17,1.47-24.21-13.8s10.76-34.08,24-41.76,24.25-1.52,24.29,13.85S4130.86,883.44,4117.49,891.16Z"/></g><polygon class="cls-24" points="3732.1 19.35 3726.14 22.81 4157.21 271.69 4045.23 336.76 3614.16 87.89 3608.26 91.32 4045.27 343.63 4169.11 271.66 3732.1 19.35"/></g><g class="cls-2"><polygon class="cls-25" points="4008.97 358.55 4008.67 1095.67 3577.61 846.79 3577.91 109.67 4008.97 358.55"/><polygon class="cls-19" points="3997.62 957.01 3997.86 387.88 3581.17 147.3 3580.87 851.09 3892.7 1031.13 3997.62 957.01"/><polygon class="cls-20" points="3990.84 962.2 3991.08 391.79 3574.39 151.22 3574.09 855.01 3886.32 1035.27 3990.84 962.2"/><polygon class="cls-20" points="3984.06 967.15 3984.3 395.71 3567.61 155.13 3567.31 858.92 3879.93 1039.41 3984.06 967.15"/><polygon class="cls-20" points="3977.28 972.11 3977.52 399.62 3560.83 159.05 3560.53 862.84 3873.54 1043.55 3977.28 972.11"/><polygon class="cls-20" points="3970.49 977.06 3970.74 403.54 3554.05 162.96 3553.75 866.75 3867.16 1047.7 3970.49 977.06"/><polygon class="cls-20" points="3963.71 982.02 3963.96 407.45 3547.27 166.88 3546.97 870.67 3860.77 1051.84 3963.71 982.02"/><polygon class="cls-20" points="3855.29 1055.4 3956.93 986.97 3957.18 411.37 3540.49 170.79 3540.19 874.58 3854.36 1055.97 3855.29 1055.4"/><polygon class="cls-20" points="3855.29 1055.4 3950.15 991.93 3950.4 415.28 3533.71 174.71 3533.41 878.5 3847.8 1060.01 3855.29 1055.4"/><polygon class="cls-20" points="3855.29 1055.4 3943.37 996.68 3943.62 419.2 3526.93 178.62 3526.63 882.41 3841.25 1064.06 3855.29 1055.4"/><polygon class="cls-20" points="3855.29 1055.4 3936.59 1001.34 3936.84 423.11 3520.15 182.54 3519.85 886.33 3834.69 1068.1 3855.29 1055.4"/><polygon class="cls-20" points="3855.29 1055.4 3929.81 1006 3930.05 427.03 3513.37 186.45 3513.07 890.24 3828.14 1072.15 3855.29 1055.4"/><polygon class="cls-20" points="3855.29 1055.4 3923.03 1010.65 3923.28 430.94 3506.59 190.37 3506.29 894.15 3821.58 1076.19 3855.29 1055.4"/><polygon class="cls-19" points="3855.29 1055.4 3916.25 1015.31 3916.49 434.86 3499.8 194.28 3499.51 898.07 3815.03 1080.24 3855.29 1055.4"/><polygon class="cls-19" points="3855.29 1055.4 3909.47 1019.97 3909.71 438.77 3493.02 198.19 3492.72 901.99 3808.43 1084.25 3855.29 1055.4"/><polygon class="cls-25" points="3460.02 178.18 3459.72 915.3 3896.74 1167.61 3897.03 430.49 3460.02 178.18"/><path class="cls-26" d="M3897,430.49l-.29,737.12,123.84-72,.3-737.12Zm68.65,551.14c-15.34,8.86-27.76,1.78-27.81-15.85s12.29-39.09,27.63-47.94,27.84-1.74,27.89,15.89S3981,972.77,3965.68,981.63Z"/><polygon class="cls-20" points="4001 840.39 3919.17 887.63 3919.17 477.73 4001 430.49 4001 840.39"/><path class="cls-22" d="M3965.68,981.63c-15.34,8.86-27.76,1.78-27.81-15.85s12.29-39.08,27.63-47.94,27.84-1.74,27.89,15.89S3981,972.77,3965.68,981.63Z"/><g class="cls-2"><path class="cls-23" d="M3986.32,920.78l-4.5-2.62c4.35,2.53,7,7.9,7.07,15.53,0,15.27-10.77,34-24.14,41.72-6.69,3.86-12.76,4.2-17.16,1.65l4.5,2.62c4.4,2.55,10.48,2.2,17.16-1.66,13.37-7.72,24.18-26.44,24.14-41.71C3993.37,928.68,3990.67,923.31,3986.32,920.78Z"/><path class="cls-20" d="M3985.81,911.31c-5.43-3.15-12.95-2.71-21.23,2.07-16.47,9.51-29.72,32.55-29.67,51.48,0,9.4,3.33,16,8.67,19.11l4.5,2.61c-5.34-3.1-8.64-9.71-8.67-19.11,0-18.92,13.2-42,29.67-51.47,8.28-4.79,15.8-5.23,21.23-2.07Z"/><path class="cls-20" d="M3969.08,916c-16.47,9.51-29.72,32.55-29.67,51.47s13.39,26.52,29.86,17,29.8-32.5,29.74-51.43S3985.55,906.49,3969.08,916Zm.17,62c-13.29,7.67-24.17,1.47-24.21-13.8s10.76-34.08,24.06-41.76,24.24-1.52,24.29,13.85S3982.62,970.3,3969.25,978Z"/></g><polygon class="cls-24" points="3583.86 106.21 3577.9 109.67 4008.97 358.55 3897 423.62 3465.93 174.75 3460.02 178.18 3897.03 430.49 4020.88 358.52 3583.86 106.21"/></g><g class="cls-2"><polygon class="cls-27" points="3860.49 442.71 3860.19 1179.83 3429.13 930.95 3429.42 193.83 3860.49 442.71"/><polygon class="cls-19" points="3849.14 1041.17 3849.38 472.03 3432.69 231.46 3432.39 935.25 3744.22 1115.28 3849.14 1041.17"/><polygon class="cls-20" points="3842.36 1046.35 3842.6 475.95 3425.91 235.37 3425.61 939.16 3737.84 1119.42 3842.36 1046.35"/><polygon class="cls-20" points="3835.58 1051.31 3835.82 479.86 3419.13 239.29 3418.83 943.08 3731.45 1123.57 3835.58 1051.31"/><polygon class="cls-20" points="3828.8 1056.26 3829.04 483.78 3412.35 243.2 3412.05 946.99 3725.06 1127.71 3828.8 1056.26"/><polygon class="cls-20" points="3822.01 1061.22 3822.26 487.69 3405.57 247.12 3405.27 950.91 3718.68 1131.85 3822.01 1061.22"/><polygon class="cls-20" points="3815.23 1066.17 3815.48 491.61 3398.79 251.03 3398.49 954.82 3712.29 1135.99 3815.23 1066.17"/><polygon class="cls-20" points="3706.81 1139.55 3808.45 1071.13 3808.7 495.52 3392.01 254.95 3391.71 958.74 3705.88 1140.12 3706.81 1139.55"/><polygon class="cls-20" points="3706.81 1139.55 3801.67 1076.08 3801.92 499.44 3385.23 258.86 3384.93 962.65 3699.32 1144.17 3706.81 1139.55"/><polygon class="cls-20" points="3706.81 1139.55 3794.89 1080.84 3795.14 503.35 3378.45 262.78 3378.15 966.57 3692.77 1148.21 3706.81 1139.55"/><polygon class="cls-20" points="3706.81 1139.55 3788.11 1085.49 3788.36 507.27 3371.67 266.69 3371.37 970.48 3686.21 1152.26 3706.81 1139.55"/><polygon class="cls-20" points="3706.81 1139.55 3781.33 1090.15 3781.57 511.18 3364.89 270.61 3364.59 974.4 3679.66 1156.3 3706.81 1139.55"/><polygon class="cls-20" points="3706.81 1139.55 3774.55 1094.81 3774.8 515.1 3358.11 274.52 3357.81 978.31 3673.1 1160.35 3706.81 1139.55"/><polygon class="cls-19" points="3706.81 1139.55 3767.77 1099.47 3768.01 519.01 3351.32 278.44 3351.03 982.23 3666.55 1164.39 3706.81 1139.55"/><polygon class="cls-19" points="3706.81 1139.55 3760.99 1104.13 3761.23 522.93 3344.54 282.35 3344.24 986.14 3659.95 1168.41 3706.81 1139.55"/><polygon class="cls-27" points="3311.54 262.33 3311.24 999.46 3748.26 1251.77 3748.55 514.64 3311.54 262.33"/><path class="cls-28" d="M3748.55,514.65l-.29,737.11,123.84-72,.3-737.12Zm68.65,551.14c-15.34,8.85-27.76,1.78-27.81-15.85s12.29-39.09,27.63-48,27.84-1.73,27.89,15.9S3832.54,1056.93,3817.2,1065.79Z"/><polygon class="cls-20" points="3852.52 924.54 3770.69 971.79 3770.69 561.89 3852.52 514.64 3852.52 924.54"/><path class="cls-22" d="M3817.2,1065.79c-15.34,8.85-27.76,1.78-27.81-15.85s12.29-39.09,27.63-48,27.84-1.73,27.89,15.9S3832.54,1056.93,3817.2,1065.79Z"/><g class="cls-2"><path class="cls-23" d="M3837.84,1004.93l-4.5-2.61c4.35,2.53,7,7.9,7.07,15.53,0,15.27-10.77,34-24.14,41.71-6.69,3.86-12.76,4.21-17.16,1.66l4.5,2.61c4.4,2.56,10.47,2.21,17.16-1.65,13.37-7.72,24.18-26.44,24.14-41.72C3844.89,1012.83,3842.19,1007.46,3837.84,1004.93Z"/><path class="cls-20" d="M3837.33,995.47c-5.43-3.16-12.95-2.71-21.23,2.07-16.47,9.51-29.72,32.55-29.67,51.47,0,9.4,3.33,16,8.67,19.11l4.5,2.62c-5.34-3.1-8.64-9.71-8.67-19.11,0-18.93,13.2-42,29.67-51.47,8.28-4.79,15.8-5.23,21.23-2.08Z"/><path class="cls-20" d="M3820.6,1000.16c-16.47,9.5-29.72,32.54-29.67,51.47s13.39,26.52,29.86,17,29.8-32.5,29.74-51.42S3837.07,990.65,3820.6,1000.16Zm.17,62c-13.29,7.67-24.17,1.47-24.21-13.8s10.76-34.09,24.05-41.76,24.25-1.52,24.3,13.84S3834.14,1054.46,3820.77,1062.18Z"/></g><polygon class="cls-24" points="3435.39 190.37 3429.42 193.83 3860.49 442.7 3748.52 507.78 3317.45 258.9 3311.54 262.33 3748.55 514.64 3872.4 442.67 3435.39 190.37"/></g><path class="cls-29" d="M3311.24,999.46l437,252.3,123.84-72v-26.4l24.63,14.22,123.84-72v-29l24.38,14.08,123.85-72,.29-737.12-437-252.31-6,3.46h0l0,43.56-3.49-2v7.83l-6.77-3.92V76.1l-6.77-3.91V80l-6.77-3.91v7.83L3695.51,80v7.82l-6.78-3.91v7.83l-6.78-3.91v7.82l-6.78-3.91v7.83l-6.78-3.91v7.82l-6.78-3.91v7.83l-6.78-3.92v7.83l-6.78-3.91v0l-33.88-19.55-5.9,3.43,0,29-24.37-14.07-6,3.46h0l0,43.57-3.5-2v7.83l-6.78-3.92V163l-6.78-3.91v7.82l-6.78-3.91v7.83l-6.78-3.91v7.82l-6.78-3.91v7.83l-6.78-3.91v7.82l-6.77-3.91v7.83l-6.77-3.91v7.82l-6.77-3.91v7.83l-6.78-3.91v7.82l-6.77-3.91v0l-33.88-19.55-5.91,3.43v26.4l-24.63-14.21-6,3.46h0v43.56l-3.5-2v7.83l-6.78-3.91v7.83l-6.78-3.92V251l-6.78-3.91V255l-6.78-3.92v7.83L3392,255v7.82l-6.77-3.91v7.83l-6.77-3.91v7.82l-6.77-3.91v7.83l-6.77-3.91v7.82l-6.77-3.91v7.83l-6.78-3.91v0l-33.87-19.56-5.91,3.43Zm846-727.77h0L3883.92,113.91Z"/><path class="cls-11" d="M2508,1088.63,3310.69,625.2c9.32-5.38,18.79-6.21,27.2-3.34l0-.08,1.45.55.36.13,29,11.1-26,12.75c.12.48.27.93.38,1.42l141.82,645c6.55,29.78-6.56,64.55-29.26,77.66l-783.38,452.29,2.79,33.19-31.7-12.28c-10.65-5-19.18-16.25-22.7-32.3l-141.83-645C2472.19,1136.51,2485.3,1101.74,2508,1088.63Z"/><path class="cls-30" d="M2538.27,1180.11l-61.1-26c-1.12-23.66,8.67-48.11,24.75-61.18l96.72,40.69Z"/><path class="cls-6" d="M2702.86,1852.71l802.68-463.43c22.71-13.11,35.81-47.88,29.27-77.67L3393,666.62c-6.54-29.78-30.25-43.3-53-30.19l-802.68,463.43c-22.71,13.11-35.81,47.89-29.27,77.67l141.83,645C2656.44,1852.3,2680.15,1865.82,2702.86,1852.71Z"/><path class="cls-30" d="M2529.63,1097l802.68-463.42c11-6.35,22.2-6.35,31.61-1.38-7.55-1.65-15.78-.5-23.9,4.2l-802.68,463.42c-22.71,13.11-35.81,47.89-29.27,77.67l141.83,645c3.37,15.35,11.35,26.27,21.35,31.56-13.55-3-24.86-15.25-29.06-34.38l-141.83-645C2493.82,1144.93,2506.92,1110.15,2529.63,1097Z"/><path class="cls-20" d="M2720.26,1808.44l754.91-435.63c20.78-12,32.77-43.82,26.78-71.07L3371.22,707.29c-6-27.26-27.68-39.63-48.46-27.63l-754.91,435.63c-20.78,12-32.77,43.82-26.78,71.07l130.72,594.45C2677.78,1808.07,2699.48,1820.44,2720.26,1808.44Z"/><path class="cls-31" d="M2712.39,1805.77l754.91-435.64c20.78-12,32.77-43.81,26.78-71.07L3363.36,704.61c-6-27.25-27.69-39.62-48.47-27.63L2560,1112.61c-20.78,12-32.77,43.82-26.78,71.07l130.73,594.46C2669.91,1805.39,2691.61,1817.76,2712.39,1805.77Z"/><path class="cls-6" d="M2713.68,1805.76l754.91-435.63c20.78-12,32.77-43.82,26.78-71.07L3364.64,704.61c-3-13.8-10.1-23.73-19-28.67,12,3.08,21.86,14.3,25.6,31.35L3502,1301.74c6,27.25-6,59.07-26.78,71.07l-754.91,435.63c-10.26,5.93-20.73,5.86-29.44,1C2698,1811.33,2705.9,1810.26,2713.68,1805.76Z"/><path class="cls-32" d="M3336.8,2245.51c-.84.4-1.7.78-2.57,1.15C3335.1,2246.3,3336,2245.91,3336.8,2245.51Z"/><path class="cls-32" d="M3334.22,2246.67c-1.13.47-2.3.91-3.49,1.33C3331.92,2247.59,3333.09,2247.14,3334.22,2246.67Z"/><path class="cls-32" d="M3330.73,2248c-.65.22-1.3.44-2,.65C3329.43,2248.44,3330.08,2248.22,3330.73,2248Z"/><path class="cls-11" d="M2720.66,1932.43l525.48,303.28V2129.19h99.62v111.32l777.42-448.84c10.44-6,15.28-14.19,14.85-22.68h.07v-36.72l-64.72,8.55-489.55-282.54c-25.58-14.77-64.27-16.37-86.41-3.59L3267.7,1587.31l-49.08,28.34-412.08,237.91-107,14.13v35.68C2699.09,1913.42,2706.27,1924.12,2720.66,1932.43Z"/><path class="cls-11" d="M3218.62,1615.65l62.13,513.54h65v111.32l777.42-448.84c10.44-6,15.28-14.19,14.85-22.68h.07v-36.72l-64.72,8.55-266-153.5H3267.7Z"/><path class="cls-6" d="M3280.75,2129.19l14.86,122.88c2.39.16,4.78.24,7.15.24l1.85,0c.61,0,1.22,0,1.83-.05h.17l1.56-.08c.49,0,1,0,1.44-.08l1.44-.11.36,0,1.2-.11c.23,0,.46,0,.68-.08l1-.1.66-.08.94-.12c.48-.07,1-.13,1.44-.21h0l1.53-.25.32,0,1.48-.27.19,0,1.68-.35c1.34-.29,2.67-.61,4-1l1-.27h.05l.14-.05q.75-.21,1.47-.45l1.58-.52c.89-.32,1.77-.64,2.63-1l.86-.35h0c.87-.37,1.73-.75,2.57-1.15s1.66-.82,2.46-1.26l.95-.53,5.55-3.21V2129.19Z"/><path class="cls-6" d="M3336.8,2245.51c-.84.4-1.7.78-2.57,1.15C3335.1,2246.3,3336,2245.91,3336.8,2245.51Z"/><path class="cls-6" d="M3334.22,2246.67c-1.13.47-2.3.91-3.49,1.33C3331.92,2247.59,3333.09,2247.14,3334.22,2246.67Z"/><path class="cls-6" d="M3324.61,2249.8l-.14,0Z"/><path class="cls-6" d="M3326.29,2249.36c-.56.16-1.12.3-1.68.44C3325.17,2249.66,3325.73,2249.52,3326.29,2249.36Z"/><path class="cls-6" d="M3322.9,2250.2c-.74.17-1.49.32-2.24.47h0l.19,0c.56-.11,1.12-.22,1.68-.35l.64-.14.22,0Z"/><path class="cls-6" d="M3320.66,2250.67l-1.31.24Z"/><path class="cls-6" d="M3319.35,2250.91l-.72.12.25,0,.32,0Z"/><path class="cls-6" d="M3246.14,2129.19v106.52l7.66,4.42a83,83,0,0,0,14.47,6.54,106,106,0,0,0,29.52,5.56,98.56,98.56,0,0,0,20.84-1.2l-1.28.21h0c-.48.08-1,.14-1.44.21l-.94.12-.66.08-1,.1c-.22,0-.45.06-.68.08l-1.2.11-.36,0-1.44.11c-.48,0-1,.06-1.44.08l-1.56.08h-.17c-.61,0-1.22,0-1.83.05l-1.85,0c-1.65,0-3.31,0-5-.12l-2.18-.12-10.85-89.67-4-33.21Z"/><path class="cls-6" d="M3327.49,2249c-.4.12-.8.22-1.2.33l.23-.06Z"/><path class="cls-6" d="M3330.73,2248c-.65.22-1.3.44-2,.65C3329.43,2248.44,3330.08,2248.22,3330.73,2248Z"/><path class="cls-11" d="M3268.27,2162.4v84.27a106,106,0,0,0,29.52,5.56V2162.4Z"/><path class="cls-7" d="M3340.21,2207l783-452c22.15-12.79,19.37-35.12-6.21-49.89l-533.14-307.7c-25.58-14.77-64.26-16.37-86.41-3.59l-783,452.05c-22.15,12.79-19.37,35.12,6.2,49.89l533.15,307.71C3279.37,2218.22,3318.06,2219.83,3340.21,2207Z"/><path class="cls-6" d="M2720.65,1882.34,3253.8,2190c25.57,14.77,64.26,16.37,86.41,3.59l783-452.05c7.26-4.19,11.79-9.42,13.77-15.06,3.46,10.48-1,21.07-14.65,29l-783,452c-21.27,12.29-60,10.68-85.53-4.08l-533.15-307.71c-17.19-9.92-24-23.26-20-34.83C2703.2,1868.55,2709.88,1876.12,2720.65,1882.34Z"/><path class="cls-6" d="M3167.52,2034.36l35.43-20.45c2.84-1.65,2.48-4.51-.8-6.41l-41.82-24.14c-3.28-1.9-8.25-2.1-11.09-.46l-35.43,20.45c-2.84,1.64-2.49,4.51.8,6.41l41.81,24.14C3159.71,2035.8,3164.68,2036,3167.52,2034.36Z"/><path class="cls-6" d="M3218.23,2004.9l35.43-20.46c2.84-1.64,2.49-4.51-.8-6.4l-41.81-24.15c-3.29-1.89-8.25-2.1-11.1-.45l-35.42,20.45c-2.85,1.64-2.49,4.51.79,6.41l41.82,24.14C3210.42,2006.33,3215.39,2006.54,3218.23,2004.9Z"/><path class="cls-6" d="M3114.26,2065.22l35.43-20.45c2.84-1.64,2.48-4.51-.8-6.41l-41.82-24.14c-3.28-1.9-8.25-2.1-11.09-.46l-35.43,20.45c-2.84,1.64-2.49,4.51.8,6.41l41.81,24.14C3106.45,2066.66,3111.42,2066.86,3114.26,2065.22Z"/><path class="cls-6" d="M3670.46,1674.43l35.43-20.46c2.84-1.64,2.49-4.51-.8-6.4L3670,1627.3c-3.28-1.9-8.25-2.1-11.1-.46l-35.42,20.45c-2.85,1.64-2.49,4.51.79,6.41l35.11,20.27C3662.65,1675.86,3667.62,1676.07,3670.46,1674.43Z"/><path class="cls-6" d="M3615.75,1706l35.43-20.45c2.84-1.64,2.49-4.51-.8-6.41l-35.1-20.26c-3.28-1.9-8.25-2.11-11.1-.46l-35.42,20.45c-2.85,1.64-2.49,4.51.8,6.41l35.1,20.26C3607.94,1707.45,3612.91,1707.65,3615.75,1706Z"/><path class="cls-6" d="M3561.05,1737.6l35.42-20.46c2.85-1.64,2.49-4.51-.79-6.4l-35.11-20.27c-3.28-1.89-8.25-2.1-11.09-.46l-35.43,20.46c-2.84,1.64-2.49,4.51.8,6.4l35.1,20.27C3553.23,1739,3558.2,1739.24,3561.05,1737.6Z"/><path class="cls-6" d="M3506.34,1769.18l35.42-20.45c2.85-1.64,2.49-4.51-.79-6.41l-35.11-20.26c-3.28-1.9-8.25-2.1-11.09-.46l-35.43,20.45c-2.84,1.64-2.49,4.51.8,6.41l35.1,20.26C3498.52,1770.62,3503.49,1770.83,3506.34,1769.18Z"/><path class="cls-6" d="M3451.63,1800.77l35.43-20.45c2.84-1.65,2.48-4.51-.8-6.41l-35.1-20.27c-3.29-1.89-8.26-2.1-11.1-.46l-35.43,20.46c-2.84,1.64-2.48,4.51.8,6.4l35.1,20.27C3443.82,1802.21,3448.78,1802.41,3451.63,1800.77Z"/><path class="cls-6" d="M3396.92,1832.36l35.43-20.46c2.84-1.64,2.48-4.51-.8-6.4l-35.1-20.27c-3.29-1.9-8.25-2.1-11.1-.46l-35.43,20.45c-2.84,1.65-2.48,4.51.8,6.41l35.1,20.27C3389.11,1833.79,3394.08,1834,3396.92,1832.36Z"/><path class="cls-6" d="M3342.21,1863.94l35.43-20.45c2.84-1.64,2.49-4.51-.8-6.41l-35.1-20.26c-3.28-1.9-8.25-2.11-11.1-.46l-35.42,20.45c-2.85,1.64-2.49,4.51.79,6.41l35.1,20.26C3334.4,1865.38,3339.37,1865.58,3342.21,1863.94Z"/><path class="cls-6" d="M3287.5,1895.53l35.43-20.46c2.84-1.64,2.49-4.51-.8-6.4L3287,1848.4c-3.28-1.89-8.25-2.1-11.1-.46l-35.42,20.45c-2.85,1.65-2.49,4.52.79,6.41l35.11,20.27C3279.69,1897,3284.66,1897.17,3287.5,1895.53Z"/><path class="cls-6" d="M3232.79,1927.11l35.43-20.45c2.84-1.64,2.49-4.51-.8-6.41l-35.1-20.26c-3.28-1.9-8.25-2.11-11.09-.46L3185.8,1900c-2.84,1.64-2.49,4.51.8,6.41l35.1,20.26C3225,1928.55,3230,1928.76,3232.79,1927.11Z"/><path class="cls-6" d="M3178.09,1958.7l35.42-20.45c2.85-1.65,2.49-4.51-.79-6.41l-35.11-20.27c-3.28-1.89-8.25-2.1-11.09-.46l-35.43,20.46c-2.84,1.64-2.49,4.51.8,6.4l35.1,20.27C3170.27,1960.14,3175.24,1960.34,3178.09,1958.7Z"/><path class="cls-6" d="M3589.85,1659.47l35.43-20.45c2.84-1.64,2.49-4.51-.8-6.41l-35.1-20.26c-3.28-1.9-8.25-2.11-11.1-.46l-35.42,20.45c-2.85,1.64-2.49,4.51.79,6.41l35.11,20.26C3582,1660.91,3587,1661.11,3589.85,1659.47Z"/><path class="cls-6" d="M3645.38,1627.41,3680.8,1607c2.85-1.64,2.49-4.51-.79-6.41l-35.1-20.26c-3.29-1.9-8.26-2.1-11.1-.46l-35.43,20.45c-2.84,1.64-2.48,4.51.8,6.41l35.1,20.26C3637.57,1628.85,3642.53,1629.06,3645.38,1627.41Z"/><path class="cls-6" d="M3701,1595.3l76.3-44c2.85-1.64,2.49-4.51-.79-6.4l-35.11-20.27c-3.28-1.9-8.25-2.1-11.09-.46l-76.3,44.05c-2.85,1.64-2.49,4.51.8,6.41l35.1,20.26C3693.18,1596.74,3698.15,1597,3701,1595.3Z"/><path class="cls-6" d="M3662.12,1556.26l61.92-35.75c2.84-1.65,2.49-4.51-.8-6.41l-35.1-20.27c-3.28-1.89-8.25-2.1-11.1-.46l-61.92,35.75c-2.84,1.64-2.48,4.51.8,6.41l35.1,20.26C3654.31,1557.69,3659.28,1557.9,3662.12,1556.26Z"/><path class="cls-6" d="M3535.14,1691.06l35.43-20.46c2.85-1.64,2.49-4.51-.8-6.4l-35.1-20.27c-3.28-1.89-8.25-2.1-11.09-.46l-35.43,20.45c-2.85,1.65-2.49,4.52.8,6.41l35.1,20.27C3527.33,1692.49,3532.3,1692.7,3535.14,1691.06Z"/><path class="cls-6" d="M3480.44,1722.64l35.42-20.45c2.85-1.64,2.49-4.51-.79-6.41L3480,1675.52c-3.28-1.9-8.25-2.1-11.09-.46l-35.43,20.45c-2.84,1.64-2.49,4.51.8,6.41l35.1,20.26C3472.62,1724.08,3477.59,1724.29,3480.44,1722.64Z"/><path class="cls-6" d="M3425.73,1754.23l35.42-20.45c2.85-1.65,2.49-4.51-.79-6.41l-35.1-20.27c-3.29-1.89-8.26-2.1-11.1-.46l-35.43,20.46c-2.84,1.64-2.49,4.51.8,6.4l35.1,20.27C3417.92,1755.67,3422.88,1755.87,3425.73,1754.23Z"/><path class="cls-6" d="M3371,1785.82l35.43-20.46c2.84-1.64,2.48-4.51-.8-6.4l-35.1-20.27c-3.29-1.9-8.26-2.1-11.1-.46L3324,1758.68c-2.84,1.64-2.48,4.51.8,6.41l35.1,20.27C3363.21,1787.25,3368.18,1787.46,3371,1785.82Z"/><path class="cls-6" d="M3316.31,1817.4l35.43-20.45c2.84-1.64,2.48-4.51-.8-6.41l-35.1-20.26c-3.29-1.9-8.25-2.11-11.1-.46l-35.42,20.45c-2.85,1.64-2.49,4.51.79,6.41l35.1,20.26C3308.5,1818.84,3313.47,1819,3316.31,1817.4Z"/><path class="cls-6" d="M3261.6,1849l35.43-20.46c2.84-1.64,2.49-4.51-.8-6.4l-35.1-20.27c-3.28-1.9-8.25-2.1-11.1-.46l-35.42,20.46c-2.85,1.64-2.49,4.51.79,6.4l35.1,20.27C3253.79,1850.42,3258.76,1850.63,3261.6,1849Z"/><path class="cls-6" d="M3206.89,1880.57l35.43-20.45c2.84-1.64,2.49-4.51-.8-6.41l-35.1-20.26c-3.28-1.9-8.25-2.1-11.1-.46l-35.42,20.45c-2.85,1.64-2.49,4.51.8,6.41l35.1,20.26C3199.08,1882,3204.05,1882.22,3206.89,1880.57Z"/><path class="cls-6" d="M3152.18,1912.16l35.43-20.45c2.85-1.65,2.49-4.51-.8-6.41l-35.1-20.27c-3.28-1.89-8.25-2.1-11.09-.46L3105.19,1885c-2.85,1.64-2.49,4.51.8,6.4l35.1,20.27C3144.37,1913.6,3149.34,1913.8,3152.18,1912.16Z"/><path class="cls-6" d="M3097.48,1943.75l35.42-20.46c2.85-1.64,2.49-4.51-.79-6.4L3097,1896.62c-3.28-1.9-8.25-2.1-11.09-.46l-35.43,20.45c-2.84,1.64-2.49,4.51.8,6.41l35.1,20.27C3089.66,1945.18,3094.63,1945.39,3097.48,1943.75Z"/><path class="cls-6" d="M3000.22,1999.9l77.29-44.63c2.85-1.64,2.49-4.51-.79-6.41l-35.1-20.26c-3.29-1.9-8.26-2.1-11.1-.46l-77.3,44.63c-2.84,1.64-2.49,4.51.8,6.4l35.1,20.27C2992.4,2001.33,2997.37,2001.54,3000.22,1999.9Z"/><path class="cls-6" d="M2893.71,1938.4l65.24-37.66c2.84-1.64,2.49-4.51-.8-6.41l-35.1-20.26c-3.29-1.9-8.25-2.11-11.1-.47l-65.24,37.67c-2.84,1.64-2.49,4.51.8,6.41l35.1,20.26C2885.89,1939.84,2890.86,1940.05,2893.71,1938.4Z"/><path class="cls-6" d="M3439.34,1684.88l35.42-20.46c2.85-1.64,2.49-4.51-.79-6.4l-35.1-20.27c-3.29-1.89-8.26-2.1-11.1-.46l-35.43,20.45c-2.84,1.65-2.48,4.52.8,6.41l35.1,20.27C3431.53,1686.31,3436.49,1686.52,3439.34,1684.88Z"/><path class="cls-6" d="M3495.41,1652.51l35.42-20.46c2.85-1.64,2.49-4.51-.79-6.4l-35.1-20.27c-3.29-1.9-8.26-2.1-11.1-.46l-35.43,20.45c-2.84,1.65-2.49,4.51.8,6.41l35.1,20.27C3487.59,1653.94,3492.56,1654.15,3495.41,1652.51Z"/><path class="cls-6" d="M3551.48,1620.13l35.42-20.45c2.85-1.64,2.49-4.51-.79-6.41L3551,1573c-3.28-1.9-8.25-2.1-11.09-.46L3504.48,1593c-2.84,1.64-2.49,4.51.8,6.41l35.1,20.26C3543.66,1621.57,3548.63,1621.78,3551.48,1620.13Z"/><path class="cls-6" d="M3607.55,1587.76l35.42-20.45c2.85-1.64,2.49-4.51-.79-6.41l-35.11-20.26c-3.28-1.9-8.25-2.11-11.09-.46l-35.43,20.45c-2.84,1.64-2.49,4.51.8,6.41l35.1,20.26C3599.73,1589.2,3604.7,1589.4,3607.55,1587.76Z"/><path class="cls-6" d="M3384.63,1716.46l35.43-20.45c2.84-1.64,2.48-4.51-.8-6.41l-35.1-20.26c-3.29-1.9-8.25-2.1-11.1-.46l-35.43,20.45c-2.84,1.64-2.48,4.51.8,6.41l35.1,20.26C3376.82,1717.9,3381.79,1718.11,3384.63,1716.46Z"/><path class="cls-6" d="M3329.92,1748.05l35.43-20.45c2.84-1.65,2.48-4.51-.8-6.41l-35.1-20.27c-3.29-1.89-8.25-2.1-11.1-.46l-35.42,20.46c-2.85,1.64-2.49,4.51.79,6.4l35.1,20.27C3322.11,1749.49,3327.08,1749.69,3329.92,1748.05Z"/><path class="cls-6" d="M3275.21,1779.64l35.43-20.46c2.84-1.64,2.49-4.51-.8-6.4l-35.1-20.27c-3.28-1.9-8.25-2.1-11.1-.46l-35.42,20.45c-2.85,1.64-2.49,4.51.79,6.41l35.11,20.27C3267.4,1781.07,3272.37,1781.28,3275.21,1779.64Z"/><path class="cls-6" d="M3220.5,1811.22l35.43-20.45c2.84-1.64,2.49-4.51-.8-6.41L3220,1764.1c-3.28-1.9-8.25-2.11-11.1-.46l-35.42,20.45c-2.85,1.64-2.49,4.51.8,6.41l35.1,20.26C3212.69,1812.66,3217.66,1812.86,3220.5,1811.22Z"/><path class="cls-6" d="M3165.8,1842.81l35.42-20.46c2.85-1.64,2.49-4.51-.79-6.4l-35.11-20.27c-3.28-1.9-8.25-2.1-11.09-.46l-35.43,20.46c-2.84,1.64-2.49,4.51.8,6.4l35.1,20.27C3158,1844.24,3163,1844.45,3165.8,1842.81Z"/><path class="cls-6" d="M3111.09,1874.39l35.42-20.45c2.85-1.64,2.49-4.51-.79-6.41l-35.11-20.26c-3.28-1.9-8.25-2.1-11.09-.46l-35.43,20.45c-2.84,1.64-2.49,4.51.8,6.41l35.1,20.26C3103.27,1875.83,3108.24,1876,3111.09,1874.39Z"/><path class="cls-6" d="M3056.38,1906l35.43-20.45c2.84-1.65,2.48-4.51-.8-6.41l-35.1-20.27c-3.29-1.89-8.26-2.1-11.1-.46l-35.43,20.46c-2.84,1.64-2.49,4.51.8,6.4l35.1,20.27C3048.57,1907.42,3053.53,1907.62,3056.38,1906Z"/><path class="cls-6" d="M3001.67,1937.57l35.43-20.46c2.84-1.64,2.48-4.51-.8-6.41l-35.1-20.26c-3.29-1.9-8.25-2.1-11.1-.46l-35.43,20.45c-2.84,1.64-2.48,4.51.8,6.41l35.1,20.27C2993.86,1939,2998.83,1939.21,3001.67,1937.57Z"/><path class="cls-6" d="M2947,1969.15l35.43-20.45c2.84-1.64,2.49-4.51-.8-6.41l-35.1-20.26c-3.28-1.9-8.25-2.11-11.1-.46L2900,1942c-2.85,1.64-2.49,4.51.79,6.41l35.1,20.26C2939.15,1970.59,2944.12,1970.79,2947,1969.15Z"/><path class="cls-6" d="M3468.15,1606.75l35.42-20.45c2.85-1.64,2.49-4.51-.8-6.41l-35.1-20.26c-3.28-1.9-8.25-2.11-11.09-.46l-35.43,20.45c-2.84,1.64-2.49,4.51.8,6.41l35.1,20.26C3460.33,1608.19,3465.3,1608.39,3468.15,1606.75Z"/><path class="cls-6" d="M3522.58,1575.32l35.43-20.45c2.84-1.64,2.49-4.51-.8-6.41l-35.1-20.26c-3.28-1.9-8.25-2.11-11.1-.46l-35.42,20.45c-2.85,1.64-2.49,4.51.79,6.41l35.1,20.26C3514.77,1576.76,3519.74,1577,3522.58,1575.32Z"/><path class="cls-6" d="M3577,1543.89l35.42-20.45c2.85-1.64,2.49-4.51-.79-6.41l-35.1-20.26c-3.29-1.9-8.26-2.1-11.1-.46L3530,1516.76c-2.84,1.64-2.48,4.51.8,6.41l35.1,20.26C3569.21,1545.33,3574.17,1545.54,3577,1543.89Z"/><path class="cls-6" d="M3631.46,1512.46l35.42-20.45c2.84-1.64,2.49-4.51-.8-6.4l-35.1-20.27c-3.28-1.9-8.25-2.1-11.09-.46l-35.43,20.45c-2.84,1.64-2.49,4.51.8,6.41l35.1,20.26C3623.64,1513.9,3628.61,1514.11,3631.46,1512.46Z"/><path class="cls-6" d="M3575.48,1480.15l35.42-20.46c2.85-1.64,2.49-4.51-.79-6.4l-11.61-6.7c-3.28-1.9-8.25-2.1-11.09-.46L3552,1466.58c-2.84,1.64-2.49,4.51.8,6.41l11.6,6.7C3567.66,1481.58,3572.63,1481.79,3575.48,1480.15Z"/><path class="cls-6" d="M3504.44,1521.16l35.42-20.45c2.85-1.64,2.49-4.51-.79-6.41l-11.61-6.7c-3.28-1.89-8.25-2.1-11.09-.46l-35.43,20.45c-2.84,1.65-2.49,4.52.8,6.41l11.6,6.7C3496.63,1522.6,3501.59,1522.8,3504.44,1521.16Z"/><path class="cls-6" d="M3450.23,1552.46l35.42-20.45c2.85-1.65,2.49-4.51-.79-6.41l-11.61-6.7c-3.28-1.9-8.25-2.1-11.09-.46l-35.43,20.45c-2.84,1.65-2.49,4.51.8,6.41l11.6,6.7C3442.42,1553.9,3447.38,1554.1,3450.23,1552.46Z"/><path class="cls-6" d="M3396,1583.76l35.43-20.46c2.84-1.64,2.48-4.51-.8-6.4l-11.6-6.7c-3.29-1.9-8.26-2.1-11.1-.46l-35.43,20.45c-2.84,1.64-2.49,4.51.8,6.41l11.6,6.7C3388.21,1585.19,3393.18,1585.4,3396,1583.76Z"/><path class="cls-6" d="M3341.81,1615.05l35.43-20.45c2.84-1.64,2.48-4.51-.8-6.41l-11.6-6.69c-3.29-1.9-8.26-2.11-11.1-.46l-35.43,20.45c-2.84,1.64-2.49,4.51.8,6.41l11.6,6.7C3334,1616.49,3339,1616.7,3341.81,1615.05Z"/><path class="cls-6" d="M3039.17,1789.79l35.42-20.46c2.85-1.64,2.49-4.51-.79-6.4l-11.61-6.7c-3.28-1.9-8.25-2.11-11.1-.46l-35.42,20.45c-2.85,1.64-2.49,4.51.8,6.41l11.6,6.7C3031.35,1791.22,3036.32,1791.43,3039.17,1789.79Z"/><path class="cls-6" d="M2985,1821.08l35.42-20.45c2.85-1.64,2.49-4.51-.79-6.41l-11.61-6.7c-3.28-1.89-8.25-2.1-11.1-.45l-35.42,20.45c-2.85,1.64-2.49,4.51.8,6.4l11.6,6.7C2977.14,1822.52,2982.11,1822.73,2985,1821.08Z"/><path class="cls-6" d="M2930.75,1852.38l35.42-20.45c2.85-1.64,2.49-4.51-.79-6.41l-11.61-6.7c-3.28-1.89-8.25-2.1-11.09-.46l-35.43,20.46c-2.84,1.64-2.49,4.51.8,6.4l11.6,6.7C2922.93,1853.82,2927.9,1854,2930.75,1852.38Z"/><path class="cls-6" d="M2876.54,1883.68l35.42-20.45c2.85-1.65,2.49-4.51-.79-6.41l-11.61-6.7c-3.28-1.9-8.25-2.1-11.09-.46L2853,1870.11c-2.84,1.65-2.49,4.51.8,6.41l11.6,6.7C2868.72,1885.12,2873.69,1885.32,2876.54,1883.68Z"/><path class="cls-6" d="M3413.44,1638.34l35.42-20.46c2.85-1.64,2.49-4.51-.79-6.4l-35.1-20.27c-3.29-1.89-8.26-2.1-11.1-.46l-35.43,20.45c-2.84,1.65-2.49,4.52.8,6.41l35.1,20.27C3405.62,1639.77,3410.59,1640,3413.44,1638.34Z"/><path class="cls-6" d="M3358.73,1669.92l35.42-20.45c2.85-1.64,2.49-4.51-.79-6.41l-35.1-20.26c-3.29-1.9-8.26-2.11-11.1-.46l-35.43,20.45c-2.84,1.64-2.48,4.51.8,6.41l35.1,20.26C3350.92,1671.36,3355.88,1671.57,3358.73,1669.92Z"/><path class="cls-6" d="M3304,1701.51l35.43-20.45c2.84-1.65,2.48-4.51-.8-6.41l-35.1-20.27c-3.29-1.89-8.26-2.1-11.1-.46L3257,1674.38c-2.84,1.64-2.48,4.51.8,6.4l35.1,20.27C3296.21,1703,3301.18,1703.15,3304,1701.51Z"/><path class="cls-6" d="M3249.31,1733.1l35.43-20.46c2.84-1.64,2.49-4.51-.8-6.4l-35.1-20.27c-3.29-1.9-8.25-2.1-11.1-.46L3202.32,1706c-2.85,1.65-2.49,4.51.79,6.41l35.1,20.27C3241.5,1734.53,3246.47,1734.74,3249.31,1733.1Z"/><path class="cls-6" d="M3194.6,1764.68l35.43-20.45c2.84-1.64,2.49-4.51-.8-6.41l-35.1-20.26c-3.28-1.9-8.25-2.11-11.1-.46l-35.42,20.45c-2.85,1.64-2.49,4.51.79,6.41l35.11,20.26C3186.79,1766.12,3191.76,1766.32,3194.6,1764.68Z"/><path class="cls-6" d="M3139.89,1796.27l35.43-20.46c2.85-1.64,2.49-4.51-.8-6.4l-35.1-20.27c-3.28-1.89-8.25-2.1-11.09-.46l-35.43,20.45c-2.85,1.65-2.49,4.52.8,6.41l35.1,20.27C3132.08,1797.7,3137.05,1797.91,3139.89,1796.27Z"/><path class="cls-6" d="M3085.19,1827.85l35.42-20.45c2.85-1.64,2.49-4.51-.79-6.41l-35.11-20.26c-3.28-1.9-8.25-2.1-11.09-.46l-35.43,20.45c-2.84,1.64-2.49,4.51.8,6.41l35.1,20.26C3077.37,1829.29,3082.34,1829.5,3085.19,1827.85Z"/><path class="cls-6" d="M3030.48,1859.44,3065.9,1839c2.85-1.65,2.49-4.51-.79-6.41l-35.1-20.27c-3.29-1.89-8.26-2.1-11.1-.46l-35.43,20.46c-2.84,1.64-2.49,4.51.8,6.4l35.1,20.27C3022.67,1860.88,3027.63,1861.08,3030.48,1859.44Z"/><path class="cls-6" d="M2975.77,1891l35.42-20.46c2.85-1.64,2.49-4.51-.79-6.4l-35.1-20.27c-3.29-1.9-8.26-2.1-11.1-.46l-35.43,20.45c-2.84,1.64-2.48,4.51.8,6.41l35.1,20.26C2968,1892.46,2972.93,1892.67,2975.77,1891Z"/><path class="cls-6" d="M3726.21,1642.24,3830.55,1582c2.84-1.64,2.49-4.51-.8-6.41l-35.1-20.26c-3.28-1.9-8.25-2.11-11.1-.46l-104.33,60.23c-2.84,1.65-2.49,4.52.8,6.41l35.1,20.27C3718.4,1643.67,3723.37,1643.88,3726.21,1642.24Z"/><path class="cls-6" d="M3054.11,2030.28,3158.44,1970c2.84-1.64,2.49-4.51-.8-6.4l-35.1-20.27c-3.28-1.9-8.25-2.1-11.09-.46l-104.34,60.24c-2.84,1.64-2.49,4.51.8,6.4l35.1,20.27C3046.29,2031.72,3051.26,2031.92,3054.11,2030.28Z"/><path class="cls-6" d="M3272.89,1973.73l35.43-20.45c2.85-1.64,2.49-4.51-.8-6.41l-41.81-24.14c-3.29-1.9-8.25-2.1-11.1-.46l-35.42,20.45c-2.85,1.65-2.49,4.51.79,6.41l41.82,24.14C3265.08,1975.17,3270.05,1975.37,3272.89,1973.73Z"/><path class="cls-6" d="M3670.19,1744.35l56.66-32.71c2.84-1.64,2.48-4.51-.8-6.4l-41.82-24.15c-3.28-1.89-8.25-2.1-11.09-.46l-56.66,32.71c-2.84,1.65-2.49,4.52.8,6.41l41.81,24.14C3662.38,1745.79,3667.34,1746,3670.19,1744.35Z"/><path class="cls-6" d="M3325.61,1943.3l56.65-32.71c2.85-1.64,2.49-4.51-.79-6.41L3339.65,1880c-3.28-1.9-8.25-2.1-11.1-.46l-56.65,32.71c-2.85,1.64-2.49,4.51.79,6.41l41.82,24.14C3317.79,1944.73,3322.76,1944.94,3325.61,1943.3Z"/><path class="cls-6" d="M3591.26,1789.93l56.65-32.71c2.85-1.65,2.49-4.51-.79-6.41l-41.82-24.14c-3.28-1.9-8.25-2.11-11.1-.46l-56.65,32.71c-2.85,1.64-2.49,4.51.79,6.4l41.82,24.15C3583.44,1791.36,3588.41,1791.57,3591.26,1789.93Z"/><path class="cls-6" d="M3593.82,1726.43,3347.5,1868.64c-3.06,1.77-3.06,4.63,0,6.39l42.65,24.62a12.18,12.18,0,0,0,11.06,0l246.33-142.21Z"/><path class="cls-6" d="M3751.75,1666.34l-39.46,22.78c-2.33,1.35-2,3.7.65,5.25l17.11,9.88c2.69,1.56,6.76,1.72,9.09.38l39.46-22.79c2.34-1.34,2-3.69-.65-5.25l-17.11-9.87C3758.15,1665.16,3754.08,1665,3751.75,1666.34Z"/><path class="cls-6" d="M3806.91,1634.49l-39.46,22.78c-2.33,1.35-2,3.7.65,5.26l17.11,9.87c2.69,1.56,6.76,1.73,9.09.38l39.47-22.78c2.33-1.35,2-3.7-.66-5.25l-17.1-9.88C3813.31,1633.32,3809.24,1633.15,3806.91,1634.49Z"/><path class="cls-6" d="M3861.62,1602.91l-39.46,22.78c-2.33,1.34-2,3.7.65,5.25l17.11,9.88c2.69,1.55,6.76,1.72,9.09.37l39.46-22.78c2.34-1.34,2-3.7-.65-5.25l-17.1-9.88C3868,1601.73,3864,1601.56,3861.62,1602.91Z"/><path class="cls-6" d="M3776.7,1617.05l-39.46,22.78c-2.33,1.35-2,3.7.65,5.25L3755,1655c2.69,1.55,6.76,1.72,9.09.38l39.46-22.79c2.34-1.34,2-3.69-.65-5.25l-17.1-9.87C3783.1,1615.87,3779,1615.7,3776.7,1617.05Z"/><path class="cls-6" d="M3828.52,1864.62l-143.58-82.88a32.58,32.58,0,0,0-32.67.07L3405.48,1925.6a13.4,13.4,0,0,0,.12,23.22l143.89,81.9a33.72,33.72,0,0,0,33.76-.23L3828.6,1886.2A12.49,12.49,0,0,0,3828.52,1864.62Z"/><path class="cls-11" d="M2896,1739.76l514.59-296.86,8.74,5.71a11.26,11.26,0,0,1-.53,19.17l-484.89,280a25.24,25.24,0,0,1-26.14-.54Z"/><polygon class="cls-7" points="1347.72 2120.7 1347.72 2867.26 2725.43 3665.89 2722.36 2914.23 1347.72 2120.7"/><polygon class="cls-4" points="5195.89 2319.85 2722.37 3748.26 2722.37 2915.21 5195.89 1486.8 5195.89 2319.85"/><polygon class="cls-14" points="1797.09 1959.34 1512.15 2119.68 1917.6 2352.53 1831.81 2399.51 1873.68 2425.04 1956.4 2377.04 2364.91 2609.89 2965.43 2260.62 2283.21 1864.36 1797.09 1959.34"/><g class="cls-2"><path class="cls-7" d="M2462.07,1853.71l-.84,298.06c-.16,54.18-35.77,108.28-106.91,149.63-143.21,83.22-376.15,83.22-520.3,0-72.53-41.88-108.76-96.85-108.6-151.74l.84-298.06c-.15,54.89,36.07,109.86,108.61,151.74,144.14,83.22,377.09,83.22,520.29,0C2426.31,1962,2461.92,1907.89,2462.07,1853.71Z"/><path class="cls-32" d="M2353.46,1702c144.15,83.22,144.91,218.15,1.7,301.37s-376.15,83.22-520.29,0-144.9-218.15-1.7-301.37S2209.32,1618.75,2353.46,1702Z"/></g><g class="cls-2"><polygon class="cls-11" points="2730.94 1838.58 2730.87 1861.25 2095.79 2230.32 2095.85 2207.65 2730.94 1838.58"/><polygon class="cls-11" points="2095.85 2207.65 2095.79 2230.32 1456.55 1861.26 1456.62 1838.58 2095.85 2207.65"/><polygon class="cls-7" points="2730.94 1838.58 2095.85 2207.65 1456.62 1838.58 2091.7 1469.51 2730.94 1838.58"/></g><path class="cls-33" d="M1824.68,2341.71h-.13a9.76,9.76,0,0,1-9.63-9.9l3.8-281.14a9.76,9.76,0,0,1,2.5-6.4l246-273.55a9.76,9.76,0,0,1,14.52,13.06L1838.19,2054.6l-3.75,277.48A9.77,9.77,0,0,1,1824.68,2341.71Z"/><path class="cls-33" d="M1859.72,2426.09v-77.15a34.57,34.57,0,0,0-34.57-34.57h0a34.57,34.57,0,0,0-34.56,34.57v78h0c0,5.11,3.4,10.22,10.2,14.12,13.55,7.76,35.44,7.76,48.9,0C1856.84,2436.94,1860.17,2431.47,1859.72,2426.09Z"/><path class="cls-7" d="M2124.94,1749.8l-.07,25.24c0,4.59-3,9.17-9.06,12.67-12.13,7-31.85,7-44.06,0-6.14-3.55-9.21-8.2-9.2-12.85l.07-25.24c0,4.65,3.06,9.3,9.2,12.85,12.21,7,31.94,7,44.06,0C2121.91,1759,2124.92,1754.39,2124.94,1749.8Z"/><path class="cls-30" d="M2115.74,1737c12.21,7,12.27,18.47.14,25.52s-31.85,7-44.06,0-12.27-18.48-.14-25.52S2103.53,1729.9,2115.74,1737Z"/><polygon class="cls-31" points="3318.78 2504.67 2849.79 2775.44 2245.04 2426.28 2714.02 2155.52 3318.78 2504.67"/><text class="cls-34" transform="matrix(0.87, -0.5, 0.87, 0.5, 2349.09, 2453.16)">STUDENT LOAN</text><text class="cls-34" transform="matrix(0.87, -0.5, 0.87, 0.5, 2507.29, 2435.26)">INVOICE</text><polygon class="cls-4" points="2618.2 2470.88 2502.66 2537.59 2490.01 2530.28 2605.55 2463.57 2618.2 2470.88"/><polygon class="cls-4" points="2648.57 2488.41 2533.02 2555.12 2520.37 2547.81 2635.92 2481.1 2648.57 2488.41"/><polygon class="cls-4" points="2678.93 2505.94 2563.39 2572.65 2550.73 2565.34 2666.28 2498.63 2678.93 2505.94"/><polygon class="cls-4" points="2709.3 2523.47 2593.75 2590.18 2581.1 2582.88 2696.64 2516.16 2709.3 2523.47"/><polygon class="cls-4" points="2739.66 2541 2624.11 2607.71 2611.46 2600.41 2727.01 2533.7 2739.66 2541"/><polygon class="cls-4" points="2770.03 2558.53 2654.48 2625.24 2641.83 2617.94 2757.37 2551.23 2770.03 2558.53"/><polygon class="cls-4" points="2800.39 2576.06 2684.84 2642.77 2672.19 2635.47 2787.74 2568.76 2800.39 2576.06"/><polygon class="cls-4" points="2830.75 2593.59 2715.21 2660.3 2702.56 2653 2818.1 2586.29 2830.75 2593.59"/><polygon class="cls-4" points="2861.12 2611.12 2745.57 2677.83 2732.92 2670.53 2848.47 2603.82 2861.12 2611.12"/><polygon class="cls-4" points="2891.48 2628.65 2775.94 2695.36 2763.28 2688.06 2878.83 2621.35 2891.48 2628.65"/><polygon class="cls-4" points="2921.85 2646.18 2806.3 2712.89 2793.65 2705.59 2909.2 2638.88 2921.85 2646.18"/><polygon class="cls-4" points="2952.21 2663.72 2836.66 2730.43 2824.01 2723.12 2939.56 2656.41 2952.21 2663.72"/><polygon class="cls-4" points="2760.09 2388.96 2644.54 2455.67 2631.89 2448.37 2747.44 2381.66 2760.09 2388.96"/><polygon class="cls-4" points="2790.45 2406.49 2674.91 2473.2 2662.25 2465.9 2777.8 2399.19 2790.45 2406.49"/><polygon class="cls-4" points="2820.82 2424.02 2705.27 2490.73 2692.62 2483.43 2808.16 2416.72 2820.82 2424.02"/><polygon class="cls-4" points="2851.18 2441.55 2735.63 2508.26 2722.98 2500.96 2838.53 2434.25 2851.18 2441.55"/><polygon class="cls-4" points="2881.55 2459.08 2766 2525.79 2753.35 2518.49 2868.89 2451.78 2881.55 2459.08"/><polygon class="cls-4" points="2911.91 2476.61 2796.36 2543.32 2783.71 2536.02 2899.26 2469.31 2911.91 2476.61"/><polygon class="cls-4" points="2942.27 2494.14 2826.73 2560.86 2814.07 2553.55 2929.62 2486.84 2942.27 2494.14"/><polygon class="cls-4" points="2972.64 2511.68 2857.09 2578.39 2844.44 2571.08 2959.99 2504.37 2972.64 2511.68"/><polygon class="cls-4" points="3003 2529.21 2887.46 2595.92 2874.8 2588.61 2990.35 2521.9 3003 2529.21"/><polygon class="cls-4" points="3033.37 2546.74 2917.82 2613.45 2905.17 2606.14 3020.72 2539.43 3033.37 2546.74"/><polygon class="cls-4" points="3063.73 2564.27 2948.18 2630.98 2935.53 2623.67 3051.08 2556.96 3063.73 2564.27"/><polygon class="cls-4" points="3094.09 2581.8 2978.55 2648.51 2965.9 2641.2 3081.44 2574.49 3094.09 2581.8"/><polygon class="cls-4" points="2901.97 2307.04 2786.43 2373.75 2773.77 2366.45 2889.32 2299.74 2901.97 2307.04"/><polygon class="cls-4" points="2932.34 2324.57 2816.79 2391.28 2804.14 2383.98 2919.68 2317.27 2932.34 2324.57"/><polygon class="cls-4" points="2962.7 2342.11 2847.15 2408.82 2834.5 2401.51 2950.05 2334.8 2962.7 2342.11"/><polygon class="cls-4" points="2993.06 2359.64 2877.52 2426.35 2864.87 2419.04 2980.41 2352.33 2993.06 2359.64"/><polygon class="cls-4" points="3023.43 2377.17 2907.88 2443.88 2895.23 2436.57 3010.78 2369.86 3023.43 2377.17"/><polygon class="cls-4" points="3053.79 2394.7 2938.25 2461.41 2925.59 2454.1 3041.14 2387.39 3053.79 2394.7"/><polygon class="cls-4" points="3084.16 2412.23 2968.61 2478.94 2955.96 2471.63 3071.51 2404.92 3084.16 2412.23"/><polygon class="cls-4" points="3114.52 2429.76 2998.97 2496.47 2986.32 2489.16 3101.87 2422.45 3114.52 2429.76"/><polygon class="cls-4" points="3144.89 2447.29 3029.34 2514 3016.69 2506.7 3132.23 2439.99 3144.89 2447.29"/><polygon class="cls-4" points="3175.25 2464.82 3059.7 2531.53 3047.05 2524.23 3162.6 2457.52 3175.25 2464.82"/><polygon class="cls-4" points="3205.61 2482.35 3090.07 2549.06 3077.42 2541.76 3192.96 2475.05 3205.61 2482.35"/><polygon class="cls-4" points="3235.98 2499.88 3120.43 2566.59 3107.78 2559.29 3223.33 2492.58 3235.98 2499.88"/><path class="cls-35" d="M4053.39,969.75s5.07,142.72,66.55,201.21,42.35,122,97.79,136.12c1.28.33,2.58.62,3.82.89,29.29,6.69,52.93,3,68.3-1.66,11.93-3.61,18.86-7.85,19.57-8.29l.06,0s49.4,105.37,38.06,232.4l353.88-122.5-102.05-229.11L4406.54,686.5,4032.25,827.15S4025.17,910.69,4053.39,969.75Z"/><path class="cls-5" d="M4084.41,836.23s-27,57.47,15.37,116.95c0,0-18.14,126,35.29,183.5s64.53,109.89,64.53,109.89,53.43,23.19,74.6-15.12l4-62.51s140.13,237.94,124,373l314.57-109.9s-128-53.43-152.24-135.1-37.3-139.15-37.3-139.15L4302.43,890.35Z"/><path class="cls-36" d="M4033.43,814.23c28.7,50,76.91,92.47,128.12,115,0,0,5.83,68.06,51.68,86.22,0,0-17.68-113.43,48.13-102.09s-2.28,122.49,61.24,213.24c53.37,76.2,129.52,122,234.36,111.21a363.74,363.74,0,0,0,63.11-12.56l87.65-188.66a388.49,388.49,0,0,0,18.46-280.67c-9.7-30.7-19-66.25-30.72-102.53-48.66-151-211.53-233-361.69-181.73a1443.8,1443.8,0,0,0-217.59,94.63C3991.52,633.52,3987.05,733.62,4033.43,814.23Z"/><path class="cls-37" d="M4221.55,1308c29.29,6.69,52.93,3,68.3-1.66l19.57-8.29.06,0-18.65-47.39S4252.44,1266.92,4221.55,1308Z"/><path class="cls-16" d="M2584,2556.27c33.7-9,129.12-28.3,129.12-28.3l85.18,14.83L2690,2553.2l-111.61,32.33s4,20.82,32.58,16.7,79.19-11.27,79.19-11.27l10.08,1.46,83.45,12.1s96.38,137.65,180.25,137.9,120.4-3,120.4-3l14.28,4.63,162.75,52.59-.31-163.09-157.76-.16-122.45-180.57s-37.33-47.25-87-51.13-167.44.52-167.44.52l-95.11,28.49s-6,20.54,17.47,17.94L2571.5,2474s5.64,33.6,36.3,25.5,124.81-30.65,124.81-30.65l96.75,13.53-113.88-6.3-157.76,55S2550.3,2565.27,2584,2556.27Z"/><path class="cls-14" d="M4207.74,1463.57s265.09-167,596-222.19V2699.77H3927.47L3952,1848S4010.06,1593.85,4207.74,1463.57Z"/><path class="cls-14" d="M3003.83,2798.88l542.33,230.57s190,103.3,303.34-4.5c53.28-50.72,130.75-219.63,197.83-384.41,75.62-185.6,138.08-365.93,138.08-365.93l-118.55-620.79-13.94-73a.08.08,0,0,0-.06,0c-4.19,2.86-274.1,188.63-334.26,822.87l-52.95,263.83L3104,2606.34s-16.17,3.94-35.53,20.44c-17,14.48-36.51,38.66-49.63,78.38C3010.68,2729.87,3004.94,2760.65,3003.83,2798.88Z"/><path class="cls-7" d="M3018.83,2705.16l732.87,147.21s73.85-497.15,138.58-804.25q3.45-16.45,6.88-32.12c30.13-137.77,101.15-264.7,169.7-362.18,82.21-117,166-199,166-199l-25.09,8.74c-57.6,37.42-109.74,76.63-154.82,117.28a.08.08,0,0,0-.06,0c-4.19,2.86-274.1,188.63-334.26,822.87l-52.95,263.83L3104,2606.34s-16.17,3.94-35.53,20.44C3051.44,2641.26,3032,2665.44,3018.83,2705.16Z"/><g class="cls-2"><g class="cls-38"><path class="cls-39" d="M3122.51,882.7c-40.41,23.33-65.41,73.38-55.84,111.77s50.07,50.62,90.48,27.29S3222.57,948.39,3213,910a58.18,58.18,0,0,0-4-11.3l-42.78,33.59a22.13,22.13,0,0,1,1.38,4c3.62,14.55-5.85,33.5-21.16,42.34s-30.66,4.22-34.29-10.33,5.85-33.52,21.16-42.35l-10.76-43.19"/><path class="cls-40" d="M3122.51,882.7l10.76,43.19c13.83-8,27.69-5,32.91,6.39L3209,898.69c-14.09-29.29-50.31-36.85-86.45-16"/><path class="cls-39" d="M3296.41,805.85,3273.68,819c-7.53,4.35-12.19,13.67-10.4,20.83s9.32,9.43,16.85,5.09l22.73-13.13c7.53-4.34,12.19-13.67,10.4-20.82s-9.32-9.44-16.85-5.09"/><path class="cls-40" d="M3307.38,849.9,3284.65,863c-7.53,4.35-12.18,13.67-10.4,20.83s9.33,9.43,16.86,5.09l22.72-13.13c7.53-4.34,12.19-13.67,10.41-20.82s-9.33-9.44-16.86-5.09"/><path class="cls-9" d="M3318.35,894l-22.73,13.12c-7.53,4.35-12.18,13.68-10.4,20.83s9.33,9.43,16.86,5.09l22.73-13.13c7.52-4.34,12.18-13.66,10.4-20.82s-9.33-9.44-16.86-5.09"/></g></g><g class="cls-2"><g class="cls-41"><path class="cls-6" d="M3444.34,1326.12h0m-181.6,7.36c-51.6,33.08-111.19,73-171.95,117.2-170.54,124.1-332.07,261.66-333.69,263l-.42-.77,1.34,5.9L3441,1328c-13.15-.35-73.53-1.36-178.24,5.44m-176.88,15.68c-112.24,131.42-328.07,354.7-330.24,356.94l-.7-.87,1.16,5.11c10.82-9.18,167.89-142.32,333.45-262.8,58.56-42.62,116-81.23,166.33-113.6-47.84,3.2-104.59,8-170,15.22m-398.44,59.54,66.95,294.13c14.11-14.62,217.56-225.52,326.9-353.16-5,.55-10,1.11-15.06,1.69-229.84,26.28-361.31,53.6-378.79,57.34"/><path class="cls-7" d="M3444.34,1326.12h0m-67.92-62.82c-27,16-64,38.45-106.84,65.81,106.53-6.73,165.7-5.29,174.3-5l-20.09-88.26c-2.48,1.39-19.72,11.08-47.37,27.47M3370,999.37c-12.44,15.77-172.39,218.55-280.43,345.48,66.95-7.32,124.75-12.14,173.16-15.3,45.43-29.1,84.62-52.9,112.92-69.69,27.52-16.31,44.74-26,47.39-27.48l-53-233m-686.78,390.74,3.27,15c10.22-2.22,142.83-30.52,380.53-57.7l18-2c104.46-122.52,259.56-318.83,280.89-345.87l-682.67,390.63"/><path class="cls-40" d="M3081.27,1349.67c-109.34,127.64-312.79,338.54-326.9,353.16l-.76.78,1.31,1.62.7.87c2.17-2.24,218-225.52,330.24-356.94l-4.59.51m287-353.29-2.45,3.1c-21.33,27-176.43,223.35-280.89,345.87l4.57-.5c108-126.93,268-329.71,280.43-345.48l.76-1-2.42-2"/><path class="cls-39" d="M3255.86,1333.94c-50.3,32.37-107.77,71-166.33,113.6C2924,1568,2766.9,1701.16,2756.08,1710.34l-.58.5,1.18,2.11.42.77c1.62-1.38,163.15-138.94,333.69-263,60.76-44.22,120.35-84.12,171.95-117.2l-6.88.46m119.75-74.08c-28.3,16.79-67.49,40.59-112.92,69.69l6.89-.44c42.86-27.36,79.82-49.78,106.84-65.81,27.65-16.39,44.89-26.08,47.37-27.47l.29-.17-.73-3.48-.35.2c-2.65,1.48-19.87,11.17-47.39,27.48"/><path class="cls-9" d="M2685.83,1405.2l-.41,3.93,2-.43c17.48-3.74,148.95-31.06,378.79-57.34,5.07-.58,10.08-1.14,15.06-1.69l4.59-.51c65.41-7.2,122.16-12,170-15.22l6.88-.46c104.71-6.8,165.09-5.79,178.24-5.44l2.73.09.63-2h0l.62-2-1.08,0c-8.6-.27-67.77-1.71-174.3,5l-6.89.44c-48.41,3.16-106.21,8-173.16,15.3l-4.57.5-18,2c-237.7,27.18-370.31,55.48-380.53,57.7l-.62.13"/></g></g><g class="cls-2"><g class="cls-42"><path class="cls-9" d="M2679.37,1217.41c-8.71,5-17.44,2.4-19.5-5.88l-1.6-6.42c-2.06-8.28,3.33-19.06,12-24.09l173.48-100.16c8.71-5,17.44-2.39,19.5,5.89l1.6,6.42c2.06,8.28-3.33,19.06-12,24.09l-173.47,100.15M2666,1163.89c-8.71,5-17.44,2.4-19.5-5.88l-1.6-6.42c-2.07-8.28,3.32-19.07,12-24.09l173.48-100.16c8.7-5,17.44-2.39,19.5,5.88l1.6,6.43c2.06,8.27-3.33,19.06-12,24.09L2666,1163.89m169.74-161.67L2642,1114.08c-11.2,6.47-18.14,20.34-15.48,31l22.66,91c2.65,10.64,13.88,14,25.08,7.56l193.75-111.86c11.2-6.46,18.13-20.34,15.48-31l-22.67-91c-2.65-10.64-13.88-14-25.08-7.56"/><path class="cls-31" d="M2830.45,1027.34,2657,1127.5c-8.71,5-14.1,15.81-12,24.09l1.6,6.42c2.06,8.28,10.79,10.91,19.5,5.88l173.47-100.15c8.71-5,14.1-15.82,12-24.09l-1.6-6.43c-2.06-8.27-10.8-10.91-19.5-5.88"/><path class="cls-31" d="M2843.78,1080.86,2670.3,1181c-8.7,5-14.09,15.81-12,24.09l1.6,6.42c2.06,8.28,10.79,10.91,19.5,5.88l173.47-100.15c8.71-5,14.1-15.81,12-24.09l-1.6-6.42c-2.06-8.28-10.79-10.91-19.5-5.89"/></g></g><path class="cls-9" d="M2843.48,1189.86l-111.9,64.6c-12.36,7.14-20,22.45-17.08,34.19s15.32,15.48,27.68,8.35l111.9-64.61c12.36-7.14,20-22.44,17.08-34.19s-15.32-15.48-27.68-8.34"/><path class="cls-4" d="M1140.51,1369.91a54.58,54.58,0,0,1-26.63-7,54,54,0,0,1-28.09-47.78V-445.77h28V1315.12a26.66,26.66,0,0,0,40.71,22.66A106.11,106.11,0,0,0,1205,1247V-407.61h28V1247a134,134,0,0,1-63.76,114.57A54.54,54.54,0,0,1,1140.51,1369.91Z"/><rect class="cls-4" x="1178.5" y="133.75" width="81.09" height="135.94" rx="40.54"/><rect class="cls-4" x="1056.87" y="894.53" width="81.09" height="135.94" rx="40.54"/></g></g></g></svg>